<?xml version="1.0" encoding="UTF-8" standalone="no"?>
<!-- Created with Inkscape (http://www.inkscape.org/) -->

<svg
   width="53.638256mm"
   height="53.638256mm"
   viewBox="0 0 53.638256 53.638256"
   version="1.1"
   id="svg1"
   sodipodi:docname="icon2.svg"
   inkscape:version="1.4 (e7c3feb100, 2024-10-09)"
   xmlns:inkscape="http://www.inkscape.org/namespaces/inkscape"
   xmlns:sodipodi="http://sodipodi.sourceforge.net/DTD/sodipodi-0.dtd"
   xmlns="http://www.w3.org/2000/svg"
   xmlns:svg="http://www.w3.org/2000/svg">
  <sodipodi:namedview
     id="namedview1"
     pagecolor="#ffffff"
     bordercolor="#000000"
     borderopacity="0.25"
     inkscape:showpageshadow="2"
     inkscape:pageopacity="0.0"
     inkscape:pagecheckerboard="0"
     inkscape:deskcolor="#d1d1d1"
     inkscape:document-units="mm"
     inkscape:zoom="1.979899"
     inkscape:cx="196.72721"
     inkscape:cy="201.77797"
     inkscape:window-width="1750"
     inkscape:window-height="1058"
     inkscape:window-x="0"
     inkscape:window-y="0"
     inkscape:window-maximized="0"
     inkscape:current-layer="layer1" />
  <defs
     id="defs1" />
  <g
     inkscape:label="Layer 1"
     inkscape:groupmode="layer"
     id="layer1"
     transform="translate(-63.755848,-119.19766)">
    <rect
       style="display:inline;fill:#c5ccdd;fill-opacity:1;stroke:none;stroke-width:2.20847;stroke-linecap:round;stroke-dasharray:4.41696, 4.41696;stroke-dashoffset:0;stroke-opacity:1"
       id="rect9"
       width="53.638256"
       height="53.638256"
       x="63.755848"
       y="119.19766"
       ry="8.6862574" />
    <path
       id="rect3"
       style="opacity:1;stroke-width:4.74816;stroke-linecap:round"
       d="m 87.933273,122.79877 c -1.391335,0.41983 -2.455853,1.68126 -2.321058,3.17084 l 1.419525,15.68834 -14.477174,-6.2291 c -1.750171,-0.57052 -3.618288,0.37883 -4.188814,2.12899 l -1.029748,3.15939 c -0.570526,1.75015 0.334139,3.78006 2.129004,4.18881 l 15.358864,3.49791 -10.397792,11.84347 c -1.083439,1.48819 -0.757429,3.55818 0.730758,4.64162 l 2.686357,1.95591 c 1.488187,1.08344 3.698236,0.84994 4.641627,-0.73077 l 8.072616,-13.5262 8.05114,13.54899 c 1.08057,1.49029 3.150172,1.82026 4.640452,0.7397 l 2.69024,-1.95068 c 1.49029,-1.08056 1.95152,-3.25478 0.7397,-4.64046 l -10.369855,-11.85784 15.373475,-3.4697 c 1.75126,-0.56715 2.70481,-2.4334 2.13767,-4.18465 l -1.0238,-3.16131 c -0.56716,-1.75127 -2.4928,-2.86181 -4.18513,-2.13751 l -14.481614,6.19791 1.450507,-15.69317 c 0.0019,-1.84081 -1.478343,-3.32422 -3.319143,-3.32599 l -3.323028,-0.003 c -0.345149,-3.2e-4 -0.683688,0.052 -1.004779,0.14878 z" />
  </g>
</svg>
